# generated from PmQm by Jehee Lee
:FULLY-SPECIFIED
:DEGREES
115
root 3.80889 25.2708 -16.9159 161.312 6.20148 -176.458
RightUpLeg -56.0455 2.54904 0.559897
RightLeg 79.4428 2.02123 11.4292
RightFoot -11.0313 -0.0918033 6.21848
RightToes -0.000541893 -0.000659172 -0.000493268
Spine 12.1501 -0.363866 2.61623
Spine1 24.5645 -1.25615 4.46297
HEad -2.84441 -31.1397 6.61481
LeftShoulder1 -3.88251e-019 -0 -3.92111e-022
LeftArm -33.2737 -1.56478 -84.8412
LeftForeArm 32.7597 1.87231 2.89899
LeftHand -1.00537 -4.06265 12.5883
RightShoulder 7.45443e-017 -2.42657e-020 1.96277e-018
RightArm -24.4728 -4.07439 73.199
RightForeArm 16.6616 2.26827 5.37225
RightHand -1.45361 11.047 -10.6209
LeftUpLeg -56.2889 -6.71392 8.20806
LeftLeg 82.3114 -1.51768 -12.2927
LeftFoot -15.3455 -0.0659081 -4.51362
LeftToes 3.91355e-005 3.11907e-005 -4.10385e-006
116
root 3.83771 25.3483 -17.0704 162.738 6.27679 -176.437
RightUpLeg -57.1337 3.19853 0.324419
RightLeg 80.0667 1.65575 9.77956
RightFoot -10.6521 -0.104883 5.39896
RightToes -0.000541893 -0.000659172 -0.000493268
Spine 12.2732 -0.346354 2.51095
Spine1 24.8231 -1.20467 4.48669
HEad -3.8376 -31.8703 7.60909
LeftShoulder1 -3.88251e-019 -0 -3.92111e-022
LeftArm -32.7918 -1.59352 -84.8451
LeftForeArm 33.4362 1.86043 2.72516
LeftHand -1.03864 -3.80815 13.3354
RightShoulder 7.45443e-017 -2.42657e-020 1.96277e-018
RightArm -24.1874 -4.01616 72.6961
RightForeArm 16.3931 2.86443 6.32649
RightHand -1.55357 11.0618 -11.3081
LeftUpLeg -57.3373 -6.80354 8.36597
LeftLeg 82.0649 -1.73452 -13.7762
LeftFoot -14.0975 -0.0249925 -4.52913
LeftToes 3.91355e-005 3.11907e-005 -4.10385e-006
117
root 3.84918 25.4421 -17.2265 164.456 6.11197 -176.432
RightUpLeg -58.2425 3.52303 -0.140466
RightLeg 80.7053 1.38383 8.56572
RightFoot -10.8177 -0.0952113 4.67912
RightToes -0.000541893 -0.000659172 -0.000493268
Spine 12.4665 -0.44825 2.39374
Spine1 25.2217 -1.39103 4.44912
HEad -5.3701 -32.4475 8.87006
LeftShoulder1 -3.88251e-019 -0 -3.92111e-022
LeftArm -32.1276 -1.57062 -84.6365
LeftForeArm 34.6646 1.86071 2.09286
LeftHand -1.01349 -3.66519 13.2173
RightShoulder 7.45443e-017 -2.42657e-020 1.96277e-018
RightArm -23.8899 -3.78266 72.4028
RightForeArm 15.6022 3.73684 7.19622
RightHand -1.6315 11.467 -11.5819
LeftUpLeg -58.7559 -6.96574 8.41479
LeftLeg 81.6916 -1.82292 -13.7369
LeftFoot -12.6593 0.0301358 -3.96293
LeftToes 3.91355e-005 3.11907e-005 -4.10385e-006
118
root 3.86023 25.5932 -17.3928 166.78 5.87624 -176.452
RightUpLeg -59.7318 3.60084 -0.644956
RightLeg 80.9095 1.36331 8.64192
RightFoot -11.8721 -0.0599046 4.41969
RightToes -0.000541893 -0.000659172 -0.000493268
Spine 12.6684 -0.606152 2.31715
Spine1 25.6399 -1.69748 4.38867
HEad -7.66966 -33.0121 10.7213
LeftShoulder1 -3.88251e-019 -0 -3.92111e-022
LeftArm -31.5024 -1.63689 -84.3677
LeftForeArm 35.7531 1.88356 1.32004
LeftHand -0.992519 -3.66205 12.9562
RightShoulder 7.45443e-017 -2.42657e-020 1.96277e-018
RightArm -23.3949 -3.51157 72.2119
RightForeArm 13.7952 5.36007 7.93105
RightHand -1.60924 11.8637 -11.1816
LeftUpLeg -60.705 -6.9875 8.52462
LeftLeg 81.2787 -1.87666 -13.3422
LeftFoot -12.2677 0.0453242 -3.51076
LeftToes 3.91355e-005 3.11907e-005 -4.10385e-006
119
root 3.87619 25.788 -17.6033 169.519 5.69444 -176.451
RightUpLeg -61.7207 3.43267 -0.90853
RightLeg 80.6112 1.44361 8.90202
RightFoot -12.6644 -0.0362758 4.29818
RightToes -0.000541893 -0.000659172 -0.000493268
Spine 12.8038 -0.724382 2.31988
Spine1 25.9274 -1.93627 4.41196
HEad -10.353 -33.6333 12.9412
LeftShoulder1 -3.88251e-019 -0 -3.92111e-022
LeftArm -31.1676 -1.73625 -84.2009
LeftForeArm 35.716 1.91219 0.978001
LeftHand -0.99907 -3.67281 13.0244
RightShoulder 7.45443e-017 -2.42657e-020 1.96277e-018
RightArm -22.8607 -3.21907 71.8646
RightForeArm 10.9827 6.79682 8.45164
RightHand -1.50324 12.1224 -10.3312
LeftUpLeg -62.9279 -6.89524 8.78052
LeftLeg 80.8234 -1.96431 -13.1736
LeftFoot -12.4654 0.0414419 -3.38982
LeftToes 3.91355e-005 3.11907e-005 -4.10385e-006
120
root 3.90042 26.015 -17.8919 172.661 5.56345 -176.397
RightUpLeg -64.1783 3.15689 -0.935444
RightLeg 80.1281 1.51092 8.83998
RightFoot -12.8448 -0.036727 3.83872
RightToes -0.000541893 -0.000659172 -0.000493268
Spine 12.7655 -0.790399 2.38739
Spine1 25.8682 -2.07824 4.53719
HEad -12.8765 -34.0225 14.8517
LeftShoulder1 -3.88251e-019 -0 -3.92111e-022
LeftArm -31.1023 -1.7123 -84.158
LeftForeArm 34.4075 1.93412 1.17119
LeftHand -0.99878 -3.68324 13.0065
RightShoulder 7.45443e-017 -2.42657e-020 1.96277e-018
RightArm -22.8327 -2.7965 71.4455
RightForeArm 8.8524 6.80547 8.39129
RightHand -1.35557 12.2036 -9.3222
LeftUpLeg -65.4053 -6.691 9.1463
LeftLeg 80.34 -2.05061 -12.9685
LeftFoot -12.6683 0.0398044 -3.11981
LeftToes 3.91355e-005 3.11907e-005 -4.10385e-006
121
root 3.9421 26.3064 -18.2748 176.37 5.61864 -176.17
RightUpLeg -66.8777 3.23536 -0.818346
RightLeg 79.4797 1.59032 8.69332
RightFoot -13.2691 -0.0272899 3.71234
RightToes -0.000541893 -0.000659172 -0.000493268
Spine 12.5333 -0.810461 2.54397
Spine1 25.4205 -2.14834 4.80871
HEad -15.2266 -33.9231 16.2056
LeftShoulder1 -3.88251e-019 -0 -3.92111e-022
LeftArm -31.2322 -1.51315 -84.2416
LeftForeArm 32.9477 1.94826 1.55605
LeftHand -0.995491 -3.57534 13.1142
RightShoulder 7.45443e-017 -2.42657e-020 1.96277e-018
RightArm -23.044 -2.3914 71.159
RightForeArm 8.3579 5.82297 7.69654
RightHand -1.16182 11.9604 -8.15971
LeftUpLeg -68.1469 -6.14465 9.74923
LeftLeg 79.8269 -2.10655 -12.5393
LeftFoot -13.1376 0.033465 -2.88448
LeftToes 3.91355e-005 3.11907e-005 -4.10385e-006
122
root 3.99608 26.6978 -18.781 -179.712 5.75127 -175.851
RightUpLeg -69.2446 3.65476 -0.75465
RightLeg 78.5084 1.6736 8.29996
RightFoot -13.9778 0.00224774 4.20913
RightToes -0.000541893 -0.000659172 -0.000493268
Spine 12.2175 -0.83022 2.74447
Spine1 24.8003 -2.23116 5.1499
HEad -17.6741 -33.4251 17.4242
LeftShoulder1 -3.88251e-019 -0 -3.92111e-022
LeftArm -31.5233 -1.31518 -84.3555
LeftForeArm 32.6688 1.94127 1.8148
LeftHand -0.989405 -3.22231 13.5472
RightShoulder 7.45443e-017 -2.42657e-020 1.96277e-018
RightArm -23.3039 -2.22647 71.0124
RightForeArm 8.63926 4.75591 6.72663
RightHand -1.01704 11.7351 -7.29008
LeftUpLeg -70.6107 -5.51908 10.4248
LeftLeg 79.1402 -2.16724 -11.9509
LeftFoot -13.7764 0.0202817 -2.92735
LeftToes 3.91355e-005 3.11907e-005 -4.10385e-006
123
root 4.04308 27.2028 -19.4367 -176.2 5.62134 -175.729
RightUpLeg -70.7077 3.9516 -0.974349
RightLeg 77.3067 1.71945 7.60652
RightFoot -14.5002 0.0222783 4.37356
RightToes -0.000541893 -0.000659172 -0.000493268
Spine 11.9311 -0.904574 2.87986
Spine1 24.2303 -2.40248 5.39145
HEad -20.1561 -32.8033 18.7621
LeftShoulder1 -3.88251e-019 -0 -3.92111e-022
LeftArm -31.8263 -1.46082 -84.4506
LeftForeArm 33.4142 1.91125 1.99435
LeftHand -0.966993 -2.87169 13.7837
RightShoulder 7.45443e-017 -2.42657e-020 1.96277e-018
RightArm -23.7684 -2.25939 70.9841
RightForeArm 8.59849 3.77744 5.70318
RightHand -1.12402 11.9454 -7.91347
LeftUpLeg -72.1511 -5.50587 10.8177
LeftLeg 78.1075 -2.25797 -11.2087
LeftFoot -14.2608 0.0143294 -2.79054
LeftToes 3.91355e-005 3.11907e-005 -4.10385e-006
124
root 4.06457 27.8225 -20.1837 -173.342 5.37401 -175.748
RightUpLeg -71.0359 4.2593 -1.39596
RightLeg 75.8425 1.77476 6.93676
RightFoot -15.0874 0.0296864 4.03721
RightToes -0.000541893 -0.000659172 -0.000493268
Spine 11.7205 -0.94148 2.98206
Spine1 23.8054 -2.49057 5.59424
HEad -22.1674 -32.3873 19.858
LeftShoulder1 -3.88251e-019 -0 -3.92111e-022
LeftArm -31.954 -2.00425 -84.7496
LeftForeArm 33.8746 1.88522 2.24477
LeftHand -0.962508 -2.78588 13.86
RightShoulder 7.45443e-017 -2.42657e-020 1.96277e-018
RightArm -24.1647 -2.2237 71.0394
RightForeArm 8.5191 2.85797 4.68448
RightHand -1.43574 12.0466 -9.92548
LeftUpLeg -72.5569 -6.05394 11.0436
LeftLeg 76.6802 -2.35911 -10.2771
LeftFoot -14.8813 0.0162068 -2.36384
LeftToes 3.91355e-005 3.11907e-005 -4.10385e-006
125
root 4.0493 28.5504 -20.916 -171.223 5.46901 -175.688
RightUpLeg -70.2248 4.96797 -1.79559
RightLeg 73.8105 1.88391 6.35424
RightFoot -15.7387 0.0433667 3.90662
RightToes -0.000541893 -0.000659172 -0.000493268
Spine 11.5805 -0.833977 3.09871
Spine1 23.5179 -2.30959 5.80987
HEad -23.1391 -32.4044 20.3556
LeftShoulder1 -3.88251e-019 -0 -3.92111e-022
LeftArm -31.9256 -2.57331 -85.3398
LeftForeArm 33.5936 1.8814 2.47181
LeftHand -0.995988 -2.76192 14.3703
RightShoulder 7.45443e-017 -2.42657e-020 1.96277e-018
RightArm -24.2319 -1.8561 71.0296
RightForeArm 9.29756 1.95871 3.82624
RightHand -1.59788 11.6506 -11.237
LeftUpLeg -71.7882 -6.55551 11.2657
LeftLeg 74.8256 -2.45054 -9.1878
LeftFoot -15.6795 0.0177966 -2.0119
LeftToes 3.91355e-005 3.11907e-005 -4.10385e-006
126
root 4.00023 29.3803 -21.6044 -169.822 5.89352 -175.681
RightUpLeg -68.4236 5.68931 -2.1092
RightLeg 71.1184 2.07543 5.93146
RightFoot -15.9505 0.0459054 3.82504
RightToes -0.000541893 -0.000659172 -0.000493268
Spine 11.4307 -0.69918 3.13051
Spine1 23.2055 -2.06142 5.83804
HEad -22.91 -32.6116 20.2512
LeftShoulder1 -3.88251e-019 -0 -3.92111e-022
LeftArm -31.9323 -2.90434 -85.9237
LeftForeArm 33.2005 1.8875 2.54055
LeftHand -1.03524 -2.66263 15.099
RightShoulder 7.45443e-017 -2.42657e-020 1.96277e-018
RightArm -24.2055 -1.21264 70.9851
RightForeArm 10.5814 1.19402 3.19452
RightHand -1.56403 11.3576 -11.1914
LeftUpLeg -69.92 -6.87208 11.2013
LeftLeg 72.3918 -2.55522 -8.07462
LeftFoot -16.1165 0.0267784 -1.6741
LeftToes 3.91355e-005 3.11907e-005 -4.10385e-006
127
root 3.92583 30.3156 -22.2794 -168.822 6.27774 -175.776
RightUpLeg -65.8636 5.83873 -2.23185
RightLeg 67.7732 2.44977 5.90054
RightFoot -15.7616 0.0262231 3.44457
RightToes -0.000541893 -0.000659172 -0.000493268
Spine 11.1708 -0.703377 3.07706
Spine1 22.6626 -2.05934 5.68978
HEad -22.0026 -32.5103 19.8068
LeftShoulder1 -3.88251e-019 -0 -3.92111e-022
LeftArm -31.995 -3.04594 -86.2993
LeftForeArm 33.062 1.89381 2.43043
LeftHand -1.05555 -2.67625 15.3629
RightShoulder 7.45443e-017 -2.42657e-020 1.96277e-018
RightArm -24.2027 -0.709482 71.0888
RightForeArm 11.1635 1.12917 2.88409
RightHand -1.61079 11.4497 -11.4499
LeftUpLeg -67.2845 -7.11161 10.7617
LeftLeg 69.2077 -2.74015 -7.16013
LeftFoot -16.0729 0.0450274 -1.24236
LeftToes 3.91355e-005 3.11907e-005 -4.10385e-006
128
root 3.81897 31.3697 -22.9337 -168.025 6.5961 -175.801
RightUpLeg -62.6201 5.67036 -2.17493
RightLeg 63.5164 3.04373 6.07458
RightFoot -15.3234 0.006013140003 3.15851
RightToes -0.000541893 -0.000659172 -0.000493268
Spine 10.8149 -0.803289 3.051
Spine1 21.9171 -2.24834 5.57442
HEad -21.1824 -32.0967 19.4876
LeftShoulder1 -3.88251e-019 -0 -3.92111e-022
LeftArm -31.974 -3.05359 -86.5599
LeftForeArm 32.9503 1.90771 2.15185
LeftHand -1.05592 -2.87023 15.0213
RightShoulder 7.45443e-017 -2.42657e-020 1.96277e-018
RightArm -23.9696 -0.595058 71.1927
RightForeArm 10.7692 1.93321 3.24877
RightHand -1.70932 11.645 -11.9893
LeftUpLeg -64.0229 -7.19523 10.1656
LeftLeg 65.1273 -3.0211 -6.42004
LeftFoot -15.73 0.0603542 -0.890042
LeftToes 3.91355e-005 3.11907e-005 -4.10385e-006
129
root 3.66749 32.5334 -23.5551 -167.674 7.25128 -175.922
RightUpLeg -58.5642 5.79296 -2.33497
RightLeg 58.2311 3.80147 6.15076
RightFoot -14.4132 -0.0143151 3.10764
RightToes -0.000541893 -0.000659172 -0.000493268
Spine 10.4483 -0.850626 2.97079
Spine1 21.1467 -2.32485 5.34161
HEad -20.4645 -31.8877 19.4773
LeftShoulder1 -3.88251e-019 -0 -3.92111e-022
LeftArm -31.9427 -2.90986 -86.7606
LeftForeArm 32.6844 1.92885 1.84741
LeftHand -1.04789 -3.20334 14.3552
RightShoulder 7.45443e-017 -2.42657e-020 1.96277e-018
RightArm -23.5551 -0.71515 71.0698
RightForeArm 10.1483 2.96621 4.24653
RightHand -1.61441 11.9712 -11.1503
LeftUpLeg -59.8412 -7.10706 9.28573
LeftLeg 60.0795 -3.24613 -5.51258
LeftFoot -14.9225 0.0741449 -0.496066
LeftToes 3.91355e-005 3.11907e-005 -4.10385e-006
